<svg xmlns="http://www.w3.org/2000/svg" width="600" height="320">
  <style>
    svg {
      font-size: 14px;
      font-family: sans-serif;
      stroke-width: 0;
    }
    .heading {
      font-size: 42px;
      font-weight: bold;
      text-anchor: middle;
    }
    .categories {
      font-weight: bold;
      text-anchor: middle;
      fill: #fff;
    }
    .tier1 {
      fill:   #ba4b01;
      stroke: #ba4b01;
    }
    .tier2 {
      fill:   #cd5817;
      stroke: #cd5817;
    }
    .tier3 {
      fill:   #e0642a;
      stroke: #e0642a;
    }
    .tier4 {
      fill:   #f06c36;
      stroke: #f06c36;
    }
    .tier5 {
      fill:   #ff7354;
      stroke: #ff7354;
    }
    .tier6 {
      fill:   #ff807d;
      stroke: #ff807d;
    }
  </style>

  <text class="heading" x="300" y="50">CSS Stylesheets</text>

  <g transform="translate(0,60)">
    <g class="triangle" transform="scale(2,1)">
      <polygon data-tier="1" class="tier1" points="  0,  0    300,  0    150,260"/>
      <polygon data-tier="2" class="tier2" points=" 25, 43    275, 43    150,260"/>
      <polygon data-tier="3" class="tier3" points=" 50, 87    250, 87    150,260"/>
      <polygon data-tier="4" class="tier4" points=" 75,130    225,130    150,260"/>
      <polygon data-tier="5" class="tier5" points="100,173    200,173    150,260"/>
      <polygon data-tier="6" class="tier6" points="125,217    175,217    150,260"/>
    </g>
    <g class="categories" transform="translate(300,20)">
      <text data-tier="1" x="0" y="0">Settings</text>
      <text data-tier="2" x="0" y="43">Tools</text>
      <text data-tier="3" x="0" y="87">Base</text>
      <text data-tier="4" x="0" y="130">Objects</text>
      <text data-tier="5" x="0" y="173">Components</text>
      <text data-tier="6" x="0" y="217">Utilities</text>
    </g>
    <!-- <g class="examples" transform="translate(300)">
      <text data-tier="1" x="0" y="105">global constants, math helper functions</text>
      <text data-tier="2" x="0" y="190">content, font, text, decoration</text>
      <text data-tier="3" x="0" y="275">color, background, visibility, transitions</text>
      <text data-tier="4" x="0" y="105">global constants, math helper functions</text>
      <text data-tier="5" x="0" y="190">content, font, text, decoration</text>
      <text data-tier="6" x="0" y="275">color, background, visibility, transitions</text>
    </g> -->
  </g>
</svg>
